<svg xmlns="http://www.w3.org/2000/svg" xmlns:xlink="http://www.w3.org/1999/xlink" width="99.546" height="109.481" viewBox="0 0 99.546 109.481">
  <defs>
    <linearGradient id="linear-gradient" x1="0.5" x2="0.5" y2="1" gradientUnits="objectBoundingBox">
      <stop offset="0" stop-color="#f5a351"/>
      <stop offset="0.389" stop-color="#d95252" stop-opacity="0.71"/>
      <stop offset="1" stop-color="#6e6ae3"/>
    </linearGradient>
    <filter id="Icon_awesome-shopping-bag" x="0" y="0" width="99.546" height="109.481" filterUnits="userSpaceOnUse">
      <feOffset dy="3" input="SourceAlpha"/>
      <feGaussianBlur stdDeviation="5" result="blur"/>
      <feFlood flood-opacity="0.161"/>
      <feComposite operator="in" in2="blur"/>
      <feComposite in="SourceGraphic"/>
    </filter>
  </defs>
  <g transform="matrix(1, 0, 0, 1, 0, 0)" filter="url(#Icon_awesome-shopping-bag)">
    <path id="Icon_awesome-shopping-bag-2" data-name="Icon awesome-shopping-bag" d="M54.643,24.838V19.87a19.87,19.87,0,0,0-39.741,0v4.968H0V67.062A12.419,12.419,0,0,0,12.419,79.481H57.127A12.419,12.419,0,0,0,69.546,67.062V24.838ZM24.838,19.87a9.935,9.935,0,1,1,19.87,0v4.968H24.838ZM49.676,38.5A3.726,3.726,0,1,1,53.4,34.773,3.726,3.726,0,0,1,49.676,38.5Zm-29.805,0A3.726,3.726,0,1,1,23.6,34.773,3.726,3.726,0,0,1,19.87,38.5Z" transform="translate(15 12)" fill="url(#linear-gradient)"/>
  </g>
</svg>
