<svg xmlns="http://www.w3.org/2000/svg" xmlns:xlink="http://www.w3.org/1999/xlink" width="84.61" height="94.126" viewBox="0 0 84.61 94.126">
  <defs>
    <linearGradient id="linear-gradient" x1="0.5" x2="0.5" y2="1" gradientUnits="objectBoundingBox">
      <stop offset="0" stop-color="#f5a351"/>
      <stop offset="0.389" stop-color="#d95252" stop-opacity="0.71"/>
      <stop offset="1" stop-color="#6e6ae3"/>
    </linearGradient>
    <filter id="Icon_awesome-building" x="0" y="0" width="84.61" height="94.126" filterUnits="userSpaceOnUse">
      <feOffset dy="3" input="SourceAlpha"/>
      <feGaussianBlur stdDeviation="3" result="blur"/>
      <feFlood flood-opacity="0.161"/>
      <feComposite operator="in" in2="blur"/>
      <feComposite in="SourceGraphic"/>
    </filter>
  </defs>
  <g transform="matrix(1, 0, 0, 1, 0, 0)" filter="url(#Icon_awesome-building)">
    <path id="Icon_awesome-building-2" data-name="Icon awesome-building" d="M64.826,71.368H61.852V3.568A3.568,3.568,0,0,0,58.284,0H8.326A3.568,3.568,0,0,0,4.758,3.568v67.8H1.784A1.784,1.784,0,0,0,0,73.152v2.974H66.61V73.152A1.784,1.784,0,0,0,64.826,71.368ZM19.031,11.3a1.784,1.784,0,0,1,1.784-1.784h5.947A1.784,1.784,0,0,1,28.547,11.3v5.947a1.784,1.784,0,0,1-1.784,1.784H20.816a1.784,1.784,0,0,1-1.784-1.784Zm0,14.274a1.784,1.784,0,0,1,1.784-1.784h5.947a1.784,1.784,0,0,1,1.784,1.784v5.947a1.784,1.784,0,0,1-1.784,1.784H20.816a1.784,1.784,0,0,1-1.784-1.784Zm7.732,22.005H20.816a1.784,1.784,0,0,1-1.784-1.784V39.847a1.784,1.784,0,0,1,1.784-1.784h5.947a1.784,1.784,0,0,1,1.784,1.784v5.947A1.784,1.784,0,0,1,26.763,47.579Zm11.3,23.789H28.547V58.879a1.784,1.784,0,0,1,1.784-1.784h5.947a1.784,1.784,0,0,1,1.784,1.784Zm9.516-25.574a1.784,1.784,0,0,1-1.784,1.784H39.847a1.784,1.784,0,0,1-1.784-1.784V39.847a1.784,1.784,0,0,1,1.784-1.784h5.947a1.784,1.784,0,0,1,1.784,1.784Zm0-14.274a1.784,1.784,0,0,1-1.784,1.784H39.847a1.784,1.784,0,0,1-1.784-1.784V25.574a1.784,1.784,0,0,1,1.784-1.784h5.947a1.784,1.784,0,0,1,1.784,1.784Zm0-14.274a1.784,1.784,0,0,1-1.784,1.784H39.847a1.784,1.784,0,0,1-1.784-1.784V11.3a1.784,1.784,0,0,1,1.784-1.784h5.947A1.784,1.784,0,0,1,47.579,11.3Z" transform="translate(9 6)" fill="url(#linear-gradient)"/>
  </g>
</svg>
