<svg id="Layer_2" data-name="Layer 2" xmlns="http://www.w3.org/2000/svg" viewBox="0 0 1081.7 772.9">
  <defs>
    <style>
      .cls-1 {
        fill: #d95252;
      }
    </style>
  </defs>
  <g>
    <path class="cls-1" d="M539.1,407l-120,300.4,120,300.5,118.8-301Z" transform="translate(1.7 -235)"/>
    <path class="cls-1" d="M505.6,407,194.8,497,342,685Q423.9,546.1,505.6,407Z" transform="translate(1.7 -235)"/>
    <path class="cls-1" d="M567.8,407l310.8,90q-73.5,94.1-147.2,188Z" transform="translate(1.7 -235)"/>
    <circle class="cls-1" cx="540.5" cy="83.4" r="52.8"/>
    <path class="cls-1" d="M-1.7,315.3c54.7-37.4,151.3-91.7,243.1-78.2,9.4,1.4,30.9,5.3,56.3,11.9,68.2,17.6,71.1,30.5,141.3,51.4,40.9,12.2,80.8,20.1,127.3,16.9l3.9-.3c43.4-3.7,68.5-19.4,123.3-47.3,13.7-7,27.5-13.4,41.1-20.4,40.5-20.7,130.7-19.5,345.4,69.1" transform="translate(1.7 -235)"/>
  </g>
</svg>
