<?xml version="1.0" encoding="UTF-8"?>
<svg id="Layer_3" data-name="Layer 3" xmlns="http://www.w3.org/2000/svg" viewBox="0 0 132.4 60.2">
  <defs>
    <style>
      .cls-1 {
        fill: #fff;
      }
    </style>
  </defs>
  <g>
    <path class="cls-1" d="M57.8,18.5c-1.5-3.6-3.7-6.8-6.4-9.5-2.8-2.8-6-4.9-9.5-6.4C38.1,1,34.2,.2,30.2,.2s-8,.8-11.7,2.4c-3.6,1.5-6.8,3.7-9.5,6.4-2.8,2.8-4.9,6-6.4,9.5C1,22.2,.2,26.1,.2,30.2s.8,8,2.4,11.7c1.5,3.6,3.7,6.8,6.4,9.5,2.8,2.8,6,4.9,9.5,6.4,3.7,1.6,7.6,2.4,11.7,2.4s8-.8,11.7-2.4c3.6-1.5,6.8-3.7,9.5-6.4,2.8-2.8,4.9-6,6.4-9.5,1.6-3.7,2.4-7.6,2.4-11.7s-.8-8-2.4-11.7Zm.2,11.7c0,15.4-12.5,27.9-27.9,27.9S2.3,45.5,2.3,30.2,14.8,2.3,30.2,2.3s27.9,12.5,27.9,27.9Z"/>
    <path class="cls-1" d="M34.9,23.6c.1,.7,.3,1.9-.1,3.2-.1,.3-.2,.6-.4,.9-1.3,0-2.6-.1-3.9-.2,.5-1.1,1.7-1.7,2.7-3.5,.3-.5,.7-1.3,.9-2.4,.4-2.3-.6-4.2-1-4.9-.3-.5-.9-1.4-1.9-2.1,.7,1.1,1.7,3.1,1.4,5.4-.1,.8-.4,1.4-.7,2.3-1.2,2.8-2.6,3.7-3.2,5.2-.6,0-1.3,0-1.9,0,.4-.6,1-1.1,1.4-2,.5-1.1,.6-2.9-.9-5.9,.2,1,.4,2.5-.2,4.2-.6,1.9-1.7,2.7-2.2,3.8-7.6,.6-16.8,2.5-17.7,6.9-.3,1.3,.2,2.8,.7,4.6,1.1,3.6,3.1,5.9,4.1,7.1,4.2,4.8,9.2,6.6,10.4,7,1.2,.4,6.7,2.1,13.4,.5,9.2-2.2,14-9,15.1-10.8,1.4-2.3,2-4.6,2-4.6,.3-1.1,.6-2.7,.5-3.6-.4-3.3-8.4-6.2-17.7-7,.3-.9,.3-2.2-.8-4.1Zm15.6,10.2c.3,.3,.2,.7,.2,.7s0,.4-.5,.9c-4.1,3.6-20.1,3.5-20.1,3.5,0,0-16.3,0-20.1-3.6-.4-.4-.4-.8-.4-.8s0-.4,.3-.8c2.4-2.8,9.5-3.8,14.6-4.2,.1,.9,.8,2.2,2.8,3.8-.6-1-1.3-2.4-1.2-3.9,1,0,1.8,0,2.5-.1,0,.4,.1,.8,.3,1.3,.9,2.2,3.2,3,3.8,3.2-.6-.5-1.9-1.8-2.3-3.9,0-.2,0-.4-.1-.7,.3,0,1.4,0,3,0-.2,.3-.4,.7-.4,1.1,0,.7,.3,1.8,2.1,3.3-.5-.8-1.1-2-.8-3.3,.1-.4,.3-.8,.5-1,5.3,.3,13.6,1.4,15.9,4.4Z"/>
    <path class="cls-1" d="M30.1,36.3c-3.6,0-7.8-.4-11.1-.9-3.5-.6-4.7-1.1-5.2-1.3,.3-.1,.8-.4,2-.7,1.6-.4,4-.8,7-1.3h.3l-.2-1.4h-.3c-3.3,.5-5.8,1-7.5,1.4-1.8,.5-3,1-2.9,1.9,0,.9,1.1,1.4,2.1,1.7,1,.3,2.4,.7,4.2,.9,3.4,.6,7.7,.9,11.5,1,.4,0,.8,0,1.1,0,3.4,0,6.8-.2,10.2-.7h.3l-.2-1.4h-.3c-3.7,.5-7.4,.8-11.1,.7Z"/>
  </g>
  <g>
    <g>
      <path class="cls-1" d="M72.8,24.8c0,.6-.2,1.2-.5,1.7-.3,.5-.7,.9-1.3,1.2-.5,.3-1.2,.4-2,.4s-1.5-.2-2.1-.5c-.6-.4-1-.9-1.3-1.6-.3-.7-.5-1.5-.5-2.4v-.6c0-.9,.2-1.7,.5-2.4,.3-.7,.8-1.2,1.4-1.6,.6-.4,1.3-.6,2.1-.6s1.4,.1,2,.4,1,.7,1.3,1.2c.3,.5,.5,1.1,.5,1.7h-2c0-.5-.2-1-.4-1.2-.3-.3-.7-.4-1.3-.4s-.8,.1-1,.3c-.3,.2-.5,.5-.6,.9-.1,.4-.2,1-.2,1.6v.6c0,.6,0,1.2,.2,1.6,.1,.4,.3,.7,.6,.9,.3,.2,.6,.3,1.1,.3s.7,0,1-.2c.3-.1,.4-.3,.6-.5,.1-.2,.2-.5,.2-.9h2Z"/>
      <path class="cls-1" d="M74,24.4c0-.7,.1-1.3,.4-1.8,.3-.5,.6-1,1.1-1.3,.5-.3,1.1-.5,1.8-.5s1.3,.2,1.8,.5c.5,.3,.9,.7,1.1,1.3s.4,1.1,.4,1.8h0c0,.8-.1,1.4-.4,1.9-.3,.5-.6,1-1.1,1.3-.5,.3-1.1,.5-1.8,.5s-1.3-.2-1.8-.5c-.5-.3-.9-.7-1.1-1.3-.3-.5-.4-1.1-.4-1.8h0Zm1.9,0c0,.4,0,.7,.1,1,0,.3,.2,.5,.4,.7s.5,.3,.8,.3,.6,0,.8-.3c.2-.2,.3-.4,.4-.7,0-.3,.1-.6,.1-1h0c0-.5,0-.8-.1-1.1,0-.3-.2-.5-.4-.7-.2-.2-.5-.3-.8-.3s-.6,0-.8,.3c-.2,.2-.3,.4-.4,.7,0,.3-.1,.6-.1,1h0Z"/>
      <path class="cls-1" d="M84.4,26v1.9h-1.1l-1.7-6.9h1.9l1,5Zm1.1-5h1.2l-.4,2.2-1.4,4.8h-1l.2-1.9,1.4-5Zm2.8,5l.2,1.9h-1l-1.4-4.7-.4-2.2h1.2l1.4,5Zm.6-5h1.9l-1.7,6.9h-1.2v-2l1.1-4.9Z"/>
      <path class="cls-1" d="M91.8,24.4c0-.7,.1-1.3,.4-1.8,.3-.5,.6-1,1.1-1.3,.5-.3,1.1-.5,1.8-.5s1.3,.2,1.8,.5c.5,.3,.9,.7,1.1,1.3s.4,1.1,.4,1.8h0c0,.8-.1,1.4-.4,1.9-.3,.5-.6,1-1.1,1.3-.5,.3-1.1,.5-1.8,.5s-1.3-.2-1.8-.5c-.5-.3-.9-.7-1.1-1.3-.3-.5-.4-1.1-.4-1.8h0Zm1.9,0c0,.4,0,.7,.1,1,0,.3,.2,.5,.4,.7s.5,.3,.8,.3,.6,0,.8-.3c.2-.2,.3-.4,.4-.7,0-.3,.1-.6,.1-1h0c0-.5,0-.8-.1-1.1,0-.3-.2-.5-.4-.7-.2-.2-.5-.3-.8-.3s-.6,0-.8,.3c-.2,.2-.3,.4-.4,.7,0,.3-.1,.6-.1,1h0Z"/>
      <path class="cls-1" d="M101.8,27.9h-1.9v-6.9h1.8v6.9Zm2.1-5.1c0,0-.2,0-.3,0s-.2,0-.3,0c-.3,0-.6,0-.8,.2s-.4,.3-.5,.5c-.1,.2-.2,.5-.2,.8l-.4-.2c0-.6,0-1.1,.2-1.6,.2-.5,.4-.8,.7-1.1,.3-.3,.7-.4,1.1-.4s.2,0,.3,0c.1,0,.2,0,.3,0v1.9Z"/>
      <path class="cls-1" d="M107.1,27.9h-1.9v-9.8h1.9v9.8Zm1.4-3.5l-1.6,1.6-.7-1.4,1.3-1.7,1.7-2h2.3l-3,3.5Zm-1,.3l1.3-1.1,2.9,4.3h-2.2l-2-3.2Z"/>
      <path class="cls-1" d="M112.6,19.2c0-.3,0-.5,.3-.7s.5-.3,.8-.3,.6,0,.8,.3,.3,.4,.3,.7,0,.5-.3,.7-.5,.3-.8,.3-.6,0-.8-.3-.3-.4-.3-.7Zm2.1,8.7h-1.9v-6.9h1.9v6.9Z"/>
      <path class="cls-1" d="M118.4,27.9h-1.9v-6.9h1.8v6.9Zm-.7-3.7c0-.7,.1-1.3,.3-1.8s.5-.9,1-1.2c.4-.3,.9-.4,1.4-.4s.8,0,1.1,.3c.3,.2,.6,.4,.8,.8,.2,.4,.3,.9,.3,1.6v4.4h-1.9v-4.4c0-.3,0-.5-.1-.7,0-.2-.2-.3-.4-.3-.2,0-.4,0-.6,0s-.4,0-.6,.1c-.2,0-.3,.2-.4,.4-.1,.2-.2,.4-.3,.6,0,.2,0,.5,0,.7h-.5Z"/>
      <path class="cls-1" d="M124,24.4c0-.7,.1-1.3,.3-1.9,.2-.5,.6-.9,1-1.2s.9-.4,1.5-.4,.9,0,1.2,.3c.3,.2,.6,.4,.8,.7,.2,.3,.3,.7,.5,1.1,.1,.4,.2,.9,.3,1.4v.2c0,.6-.2,1.2-.4,1.8-.2,.5-.5,.9-.8,1.3-.4,.3-.8,.5-1.4,.5s-1.1-.2-1.5-.5c-.4-.3-.7-.7-1-1.3s-.3-1.1-.3-1.8h0Zm6.4-3.5v6.7c0,.6-.1,1.2-.4,1.6-.3,.4-.7,.8-1.2,1-.5,.2-1.1,.3-1.8,.3s-.6,0-.9-.1c-.3,0-.6-.2-.9-.4-.3-.2-.5-.4-.7-.6l.8-1.2c.2,.2,.4,.4,.7,.5,.3,.1,.6,.2,.9,.2,.5,0,.9-.1,1.1-.4s.4-.6,.4-1.1v-5.1l.2-1.6h1.8Zm-4.5,3.5c0,.4,0,.7,.1,1s.2,.5,.4,.7c.2,.2,.5,.3,.8,.3s.6,0,.8-.2c.2-.1,.4-.3,.5-.6,.1-.2,.2-.5,.2-.9v-.7c0-.3,0-.5-.1-.7s-.1-.4-.3-.5c-.1-.1-.3-.3-.4-.3-.2,0-.4-.1-.6-.1s-.6,0-.8,.3-.4,.4-.5,.7c0,.3-.2,.6-.2,1h0Z"/>
    </g>
    <g>
      <path class="cls-1" d="M72.5,37.4c0,.6-.2,1.1-.5,1.6s-.7,.8-1.2,1.1c-.5,.3-1.1,.4-1.9,.4s-1.4-.2-1.9-.5c-.5-.4-1-.9-1.3-1.5-.3-.6-.5-1.4-.5-2.3v-.9c0-.9,.2-1.6,.5-2.3,.3-.6,.7-1.1,1.3-1.5,.6-.4,1.2-.5,2-.5s1.3,.1,1.8,.4c.5,.3,.9,.6,1.1,1.1,.3,.5,.4,1,.5,1.6h-1.2c0-.7-.3-1.2-.6-1.5-.3-.4-.8-.6-1.6-.6s-1,.1-1.4,.4c-.4,.3-.7,.7-.8,1.2-.2,.5-.3,1.1-.3,1.7v1c0,.6,0,1.2,.3,1.7,.2,.5,.4,.9,.8,1.2,.4,.3,.8,.4,1.4,.4s.9,0,1.3-.2c.3-.2,.5-.4,.7-.7s.3-.7,.3-1.1h1.2Z"/>
      <path class="cls-1" d="M79,37h-1.2c-.7,0-1.2,.1-1.6,.3-.4,.2-.6,.5-.6,1s.1,.6,.3,.8c.2,.2,.6,.3,1,.3s.7,0,1-.2c.3-.2,.5-.3,.7-.6,.2-.2,.2-.4,.3-.7l.5,.6c0,.2-.1,.4-.2,.6-.1,.2-.3,.4-.5,.6s-.5,.4-.8,.5c-.3,.1-.6,.2-1,.2s-.9,0-1.2-.3c-.4-.2-.6-.4-.8-.7s-.3-.7-.3-1c0-.7,.3-1.3,.8-1.7,.6-.4,1.3-.6,2.3-.6h1.4v.8Zm-.2-1.4c0-.4-.1-.7-.4-1-.2-.2-.6-.4-1.1-.4s-.6,0-.8,.2c-.2,.1-.4,.2-.5,.4-.1,.2-.2,.3-.2,.5h-1.2c0-.3,.1-.7,.3-1,.2-.3,.5-.6,1-.8,.4-.2,.9-.3,1.5-.3s1,0,1.3,.3,.7,.4,.9,.8c.2,.3,.3,.8,.3,1.3v3.2c0,.2,0,.5,0,.7,0,.3,.1,.5,.2,.7h-1.2c0,0-.1-.2-.1-.4s0-.4,0-.6v-3.6Z"/>
      <path class="cls-1" d="M85.7,34.3h-3.8v-.9h3.8v.9Zm-2.7,6v-7.7c0-.7,.2-1.3,.6-1.7,.4-.4,1-.6,1.7-.6s.3,0,.4,0c.1,0,.3,0,.4,0v1c-.2,0-.3,0-.4,0-.1,0-.2,0-.3,0-.4,0-.7,.1-.9,.3-.2,.2-.3,.5-.3,1v7.7h-1.2Z"/>
      <path class="cls-1" d="M90.6,40.5c-.6,0-1.2-.1-1.7-.4-.5-.3-.8-.7-1.1-1.2s-.4-1.1-.4-1.7v-.3c0-.8,.1-1.4,.4-1.9,.3-.5,.7-.9,1.1-1.2,.5-.3,1-.4,1.5-.4s1.2,.1,1.6,.4c.4,.3,.7,.7,.9,1.2,.2,.5,.3,1.1,.3,1.7v.5h-5.2v-1h4c0-.4,0-.7-.2-1s-.3-.5-.5-.7c-.2-.2-.6-.3-1-.3s-.7,.1-1,.3c-.3,.2-.5,.5-.6,.9-.2,.4-.2,.9-.2,1.4v.3c0,.4,0,.8,.2,1.2,.2,.4,.4,.6,.7,.9,.3,.2,.7,.3,1.1,.3s.8,0,1.1-.3,.5-.4,.8-.7l.7,.6c-.2,.3-.5,.6-1,.9s-1,.4-1.7,.4Zm.5-10h1.4l-1.7,1.9h-1l1.2-1.9Z"/>
    </g>
  </g>
</svg>