<svg id="Layer_1" data-name="Layer 1" xmlns="http://www.w3.org/2000/svg" xmlns:xlink="http://www.w3.org/1999/xlink" viewBox="0 0 49.9 76.2">
  <defs>
    <style>
      .cls-1 {
        fill: url(#linear-gradient);
      }

      .cls-2 {
        fill: #d95252;
      }
    </style>
    <linearGradient id="linear-gradient" x1="-503.19" y1="561.16" x2="-503.19" y2="560.16" gradientTransform="matrix(49.85, 0, 0, -57.67, 25110.44, 32361.33)" gradientUnits="userSpaceOnUse">
      <stop offset="0" stop-color="#f5a351"/>
      <stop offset="0.39" stop-color="#d95252" stop-opacity="0.71"/>
      <stop offset="1" stop-color="#6e6ae3"/>
    </linearGradient>
  </defs>
  <path id="wine-svgrepo-com" class="cls-1" d="M10.9,23.8H2.1A2.1,2.1,0,0,0,0,25.9H0V40.3A6,6,0,0,0,4,46v7.5H2.1a2.1,2.1,0,0,0,0,4.2h8.8a2.1,2.1,0,0,0,0-4.2H9V46a6.1,6.1,0,0,0,3.9-5.7V25.9a2,2,0,0,0-2-2.1ZM4.1,27.9H8.8v6H4.1Zm43.7-4.1H39a2,2,0,0,0-2.1,2h0V40.3a6,6,0,0,0,4,5.7v7.5H39a2.1,2.1,0,0,0,0,4.2h8.8a2.1,2.1,0,0,0,0-4.2H45.9V46a6.2,6.2,0,0,0,4-5.7V25.9A2.1,2.1,0,0,0,47.8,23.8ZM41,27.9h4.7v6H41ZM29.1,17.2V2.1A2.1,2.1,0,0,0,27,0H22.8a2.1,2.1,0,0,0-2.1,2.1h0V17.2a9.9,9.9,0,0,0-5.6,8.9v28a3.6,3.6,0,0,0,3.5,3.6H31.2a3.5,3.5,0,0,0,3.5-3.6v-28A9.9,9.9,0,0,0,29.1,17.2Zm1.5,13.3V46H19.2V30.5Z" transform="translate(0 0)"/>
  <g>
    <g>
      <g>
        <rect class="cls-2" x="18.1" y="69.1" width="13.7" height="1.08" transform="translate(-41.9 38) rotate(-45)"/>
        <rect class="cls-2" x="17.3" y="68.3" width="15.1" height="2.53" transform="translate(-41.9 38) rotate(-45)"/>
      </g>
      <g>
        <circle class="cls-2" cx="30.3" cy="64.2" r="0.5"/>
        <path class="cls-2" d="M30.3,65.5a1.3,1.3,0,1,1,0-2.6,1.3,1.3,0,0,1,0,2.6Zm0-1.5a.2.2,0,0,0-.2.2c0,.2.4.2.4,0A.2.2,0,0,0,30.3,64Z" transform="translate(0 0)"/>
      </g>
      <g>
        <circle class="cls-2" cx="19.6" cy="74.9" r="0.5"/>
        <path class="cls-2" d="M19.6,76.2a1.3,1.3,0,0,1,0-2.6,1.3,1.3,0,0,1,0,2.6Zm0-1.5a.2.2,0,0,0-.2.2c0,.2.4.2.4,0A.2.2,0,0,0,19.6,74.7Z" transform="translate(0 0)"/>
      </g>
    </g>
    <g>
      <g>
        <rect class="cls-2" x="24.4" y="62.8" width="1.1" height="13.65" transform="translate(-41.9 38) rotate(-45)"/>
        <rect class="cls-2" x="23.7" y="62.1" width="2.5" height="15.11" transform="translate(-41.9 38) rotate(-45)"/>
      </g>
      <g>
        <circle class="cls-2" cx="19.6" cy="64.3" r="0.5"/>
        <path class="cls-2" d="M19.6,65.6a1.2,1.2,0,0,1-1.2-1.3,1.2,1.2,0,0,1,1.2-1.2,1.2,1.2,0,0,1,1.3,1.2A1.3,1.3,0,0,1,19.6,65.6Zm0-1.5-.2.2c0,.2.4.2.4,0Z" transform="translate(0 0)"/>
      </g>
      <g>
        <circle class="cls-2" cx="30.2" cy="74.9" r="0.5"/>
        <path class="cls-2" d="M30.2,76.2a1.3,1.3,0,1,1,1.3-1.3A1.3,1.3,0,0,1,30.2,76.2Zm0-1.5a.2.2,0,0,0-.2.2c0,.2.4.2.4,0A.2.2,0,0,0,30.2,74.7Z" transform="translate(0 0)"/>
      </g>
    </g>
  </g>
</svg>
