<svg xmlns="http://www.w3.org/2000/svg" xmlns:xlink="http://www.w3.org/1999/xlink" width="49.854" height="57.669" viewBox="0 0 49.854 57.669">
  <defs>
    <linearGradient id="linear-gradient" x1="0.5" x2="0.5" y2="1" gradientUnits="objectBoundingBox">
      <stop offset="0" stop-color="#f5a351"/>
      <stop offset="0.389" stop-color="#d95252" stop-opacity="0.71"/>
      <stop offset="1" stop-color="#6e6ae3"/>
    </linearGradient>
  </defs>
  <path id="wine-svgrepo-com" d="M25.057,23.784H16.251a2.066,2.066,0,0,0-2.066,2.066V40.329a6.009,6.009,0,0,0,3.986,5.651v7.557h-1.92a2.066,2.066,0,0,0,0,4.132h8.806a2.066,2.066,0,1,0,0-4.132h-1.92V45.979a6.009,6.009,0,0,0,3.986-5.651V25.85A2.066,2.066,0,0,0,25.057,23.784Zm-6.74,4.132h4.673V33.9H18.317Zm43.655-4.132H53.167A2.066,2.066,0,0,0,51.1,25.85V40.329a6.009,6.009,0,0,0,3.986,5.651v7.557h-1.92a2.066,2.066,0,1,0,0,4.132h8.806a2.066,2.066,0,0,0,0-4.132h-1.92V45.979a6.009,6.009,0,0,0,3.986-5.651V25.85A2.067,2.067,0,0,0,61.972,23.784Zm-6.74,4.132h4.673V33.9H55.233ZM43.29,17.187V2.066A2.066,2.066,0,0,0,41.224,0H37a2.066,2.066,0,0,0-2.066,2.066V17.187a9.87,9.87,0,0,0-5.648,8.892V54.145a3.528,3.528,0,0,0,3.524,3.524h12.6a3.528,3.528,0,0,0,3.524-3.524V26.08A9.87,9.87,0,0,0,43.29,17.187Zm1.515,13.3V46.007H33.418V30.488Z" transform="translate(-14.185)" fill="url(#linear-gradient)"/>
</svg>
