<svg xmlns="http://www.w3.org/2000/svg" xmlns:xlink="http://www.w3.org/1999/xlink" width="58.812" height="57.669" viewBox="0 0 58.812 57.669">
  <defs>
    <linearGradient id="linear-gradient" x1="0.5" x2="0.5" y2="1" gradientUnits="objectBoundingBox">
      <stop offset="0" stop-color="#f5a351"/>
      <stop offset="0.389" stop-color="#d95252" stop-opacity="0.71"/>
      <stop offset="1" stop-color="#6e6ae3"/>
    </linearGradient>
  </defs>
  <g id="food-svgrepo-com" transform="translate(0 -2.917)">
    <path id="Path_4561" data-name="Path 4561" d="M97.1,53.037a5.218,5.218,0,0,1-.68-.991A17.28,17.28,0,1,1,95.981,48l1.566-11.642.035-.262a24.253,24.253,0,0,0-33.674-3.143v5.6A9.515,9.515,0,0,1,59.5,46.573V66.18a24.273,24.273,0,0,0,39.9-.939V54.561A5.2,5.2,0,0,1,97.1,53.037Z" transform="translate(-47.842 -19.832)" fill="url(#linear-gradient)"/>
    <path id="Path_4562" data-name="Path 4562" d="M100.757,78.318a14.355,14.355,0,1,0,14.355,14.355A14.371,14.371,0,0,0,100.757,78.318Z" transform="translate(-69.473 -60.628)" fill="url(#linear-gradient)"/>
    <path id="Path_4563" data-name="Path 4563" d="M267.664,5.182a2.265,2.265,0,0,0-4.509-.3l-3.309,24.6a2.264,2.264,0,0,0,2.244,2.567h1.329V58.431a2.155,2.155,0,1,0,4.31,0Z" transform="translate(-208.917)" fill="url(#linear-gradient)"/>
    <path id="Path_4564" data-name="Path 4564" d="M13.127,10.886a1.469,1.469,0,1,0-2.939,0v8.131H8.033V10.886a1.469,1.469,0,1,0-2.939,0v8.131H2.939V10.886a1.469,1.469,0,1,0-2.939,0V24.144a6.574,6.574,0,0,0,4.408,6.2V63.657a2.155,2.155,0,1,0,4.311,0V30.343a6.574,6.574,0,0,0,4.408-6.2Z" transform="translate(0 -5.226)" fill="url(#linear-gradient)"/>
  </g>
</svg>
