<svg xmlns="http://www.w3.org/2000/svg" width="33" height="33" viewBox="0 0 33 33">
  <path id="Icon_awesome-parking" data-name="Icon awesome-parking" d="M29.464,2.25H3.536A3.537,3.537,0,0,0,0,5.786V31.714A3.537,3.537,0,0,0,3.536,35.25H29.464A3.537,3.537,0,0,0,33,31.714V5.786A3.537,3.537,0,0,0,29.464,2.25ZM17.679,23.464H14.143V27a1.182,1.182,0,0,1-1.179,1.179H10.607A1.182,1.182,0,0,1,9.429,27V10.5a1.182,1.182,0,0,1,1.179-1.179h7.071a7.071,7.071,0,1,1,0,14.143Zm0-9.429H14.143V18.75h3.536a2.357,2.357,0,1,0,0-4.714Z" transform="translate(0 -2.25)" fill="#6e6ae3"/>
</svg>
