<svg xmlns="http://www.w3.org/2000/svg" xmlns:xlink="http://www.w3.org/1999/xlink" width="50.391" height="57.669" viewBox="0 0 50.391 57.669">
  <defs>
    <linearGradient id="linear-gradient" x1="0.5" x2="0.5" y2="1" gradientUnits="objectBoundingBox">
      <stop offset="0" stop-color="#f5a351"/>
      <stop offset="0.389" stop-color="#d95252" stop-opacity="0.71"/>
      <stop offset="1" stop-color="#6e6ae3"/>
    </linearGradient>
  </defs>
  <g id="_11225497331595501340" data-name="11225497331595501340" transform="translate(-3 -1)">
    <g id="Group_391" data-name="Group 391" transform="translate(3 1)">
      <path id="Path_4558" data-name="Path 4558" d="M5.9,18l2.24,4.479a1.794,1.794,0,0,0,1.68,1.12H41.547a1.794,1.794,0,0,0,1.68-1.12L45.466,18Z" transform="translate(-0.488 13.727)" fill="url(#linear-gradient)"/>
      <path id="Path_4559" data-name="Path 4559" d="M4.866,30.861H51.524a1.866,1.866,0,0,0,0-3.733H49.658A21.688,21.688,0,0,0,32.674,6.972c0-.373.187-.747.187-1.306a4.666,4.666,0,0,0-9.332,0c0,.56.187.933.187,1.306A21.9,21.9,0,0,0,6.733,27.128H4.866a1.866,1.866,0,1,0,0,3.733Z" transform="translate(-3 -1)" fill="url(#linear-gradient)"/>
    </g>
    <path id="Path_4560" data-name="Path 4560" d="M40.692,22.56a1.33,1.33,0,0,0-1.12-.56,7.656,7.656,0,0,0-2.053.187l-2.053,2.8a11.137,11.137,0,0,1-8.958,4.479h-5.6a1.866,1.866,0,1,1,0-3.733h6.532a3.548,3.548,0,0,0,.933-2.426V23.12c0-.747-.56-1.12-1.306-1.12H19.6A11.639,11.639,0,0,0,9.524,27.226L6.165,32.451a1.594,1.594,0,0,0,0,1.306L9.9,39.917c.187.373.373.56.747.56h.187a1.122,1.122,0,0,0,.747-.187,28.36,28.36,0,0,1,15.864-4.852,10.935,10.935,0,0,0,9.7-5.786l3.359-5.972C40.879,23.493,40.879,22.933,40.692,22.56Z" transform="translate(2.621 18.193)" fill="url(#linear-gradient)"/>
  </g>
</svg>
