<svg xmlns="http://www.w3.org/2000/svg" width="32.161" height="32.161" viewBox="0 0 32.161 32.161">
  <g id="Icon_feather-instagram" data-name="Icon feather-instagram" transform="translate(1.5 1.5)">
    <path id="Path_6" data-name="Path 6" d="M10.29,3H24.87a7.29,7.29,0,0,1,7.29,7.29V24.87a7.29,7.29,0,0,1-7.29,7.29H10.29A7.29,7.29,0,0,1,3,24.87V10.29A7.29,7.29,0,0,1,10.29,3Z" transform="translate(-3 -3)" fill="none" stroke="#f5a351" stroke-linecap="round" stroke-linejoin="round" stroke-width="3"/>
    <path id="Path_7" data-name="Path 7" d="M23.666,16.912A5.832,5.832,0,1,1,18.752,12a5.832,5.832,0,0,1,4.914,4.914Z" transform="translate(-3.254 -3.25)" fill="none" stroke="#f5a351" stroke-linecap="round" stroke-linejoin="round" stroke-width="3"/>
    <path id="Path_8" data-name="Path 8" d="M26.25,9.75h0" transform="translate(-3.651 -3.189)" fill="none" stroke="#f5a351" stroke-linecap="round" stroke-linejoin="round" stroke-width="3"/>
  </g>
</svg>
