<svg xmlns="http://www.w3.org/2000/svg" width="52.845" height="35.672" viewBox="0 0 52.845 35.672">
  <path id="Icon_zocial-email" data-name="Icon zocial-email" d="M.072,36.58V7.228q0-.051.153-.968L17.5,21.038.276,37.6a4.319,4.319,0,0,1-.2-1.019ZM2.365,4.221a2.2,2.2,0,0,1,.866-.153H49.758a2.886,2.886,0,0,1,.917.153L33.349,19.05l-2.293,1.835L26.52,24.6l-4.535-3.72L19.692,19.05Zm.051,35.366L19.793,22.923l6.727,5.453,6.727-5.453L50.624,39.587a2.447,2.447,0,0,1-.866.153H3.232a2.308,2.308,0,0,1-.815-.153ZM35.54,21.038,52.765,6.259a3.042,3.042,0,0,1,.153.968V36.58a3.906,3.906,0,0,1-.153,1.019Z" transform="translate(-0.072 -4.068)" fill="#fff"/>
</svg>
