<svg xmlns="http://www.w3.org/2000/svg" width="48.969" height="48.969" viewBox="0 0 48.969 48.969">
  <path id="Icon_awesome-phone-alt" data-name="Icon awesome-phone-alt" d="M47.572,34.6,36.86,30.013a2.3,2.3,0,0,0-2.678.66l-4.744,5.8A35.451,35.451,0,0,1,12.491,19.522l5.8-4.744a2.29,2.29,0,0,0,.66-2.678L14.356,1.388A2.311,2.311,0,0,0,11.726.058l-9.947,2.3A2.3,2.3,0,0,0,0,4.591,44.374,44.374,0,0,0,44.378,48.969a2.3,2.3,0,0,0,2.238-1.779l2.3-9.947a2.323,2.323,0,0,0-1.34-2.64Z" transform="translate(0 0)" fill="#fff"/>
</svg>
