<svg xmlns="http://www.w3.org/2000/svg" xmlns:xlink="http://www.w3.org/1999/xlink" width="48.857" height="32.571" viewBox="0 0 48.857 32.571">
  <defs>
    <linearGradient id="linear-gradient" x1="0.5" x2="0.5" y2="1" gradientUnits="objectBoundingBox">
      <stop offset="0" stop-color="#f5a351"/>
      <stop offset="0.389" stop-color="#d95252" stop-opacity="0.71"/>
      <stop offset="1" stop-color="#6e6ae3"/>
    </linearGradient>
  </defs>
  <path id="Ikon_video" data-name="Ikon video" d="M28.517,4.5H4.054A4.054,4.054,0,0,0,0,8.554V33.017a4.054,4.054,0,0,0,4.054,4.054H28.517a4.054,4.054,0,0,0,4.054-4.054V8.554A4.054,4.054,0,0,0,28.517,4.5ZM44.582,7.7l-9.3,6.412V27.461l9.3,6.4a2.72,2.72,0,0,0,4.275-2.188V9.886A2.721,2.721,0,0,0,44.582,7.7Z" transform="translate(0 -4.5)" fill="url(#linear-gradient)"/>
</svg>
