<svg xmlns="http://www.w3.org/2000/svg" xmlns:xlink="http://www.w3.org/1999/xlink" width="45.714" height="40" viewBox="0 0 45.714 40">
  <defs>
    <linearGradient id="linear-gradient" x1="0.5" x2="0.5" y2="1" gradientUnits="objectBoundingBox">
      <stop offset="0" stop-color="#f5a351"/>
      <stop offset="0.389" stop-color="#d95252" stop-opacity="0.71"/>
      <stop offset="1" stop-color="#6e6ae3"/>
    </linearGradient>
  </defs>
  <path id="Ikon_kamera" data-name="Ikon kamera" d="M45.714,12.25V37.964a4.287,4.287,0,0,1-4.286,4.286H4.286A4.287,4.287,0,0,1,0,37.964V12.25A4.287,4.287,0,0,1,4.286,7.964h7.857l1.1-2.937A4.28,4.28,0,0,1,17.25,2.25H28.455a4.28,4.28,0,0,1,4.009,2.777l1.107,2.938h7.857A4.287,4.287,0,0,1,45.714,12.25ZM33.571,25.107A10.714,10.714,0,1,0,22.857,35.821,10.723,10.723,0,0,0,33.571,25.107Zm-2.857,0a7.857,7.857,0,1,1-7.857-7.857A7.869,7.869,0,0,1,30.714,25.107Z" transform="translate(0 -2.25)" fill="url(#linear-gradient)"/>
</svg>
