<svg xmlns="http://www.w3.org/2000/svg" width="32.302" height="32.302" viewBox="0 0 32.302 32.302">
  <path id="Icon_awesome-facebook-square" data-name="Icon awesome-facebook-square" d="M28.841,2.25H3.461A3.461,3.461,0,0,0,0,5.711v25.38a3.461,3.461,0,0,0,3.461,3.461h9.9V23.57H8.815V18.4h4.542v-3.94c0-4.481,2.668-6.956,6.754-6.956a27.519,27.519,0,0,1,4,.349v4.4H21.859a2.585,2.585,0,0,0-2.914,2.793V18.4H23.9l-.793,5.169H18.945V34.552h9.9A3.461,3.461,0,0,0,32.3,31.091V5.711A3.461,3.461,0,0,0,28.841,2.25Z" transform="translate(0 -2.25)" fill="#f5a351"/>
</svg>
