<?xml version="1.0" encoding="UTF-8"?>
<svg id="Layer_3" data-name="Layer 3" xmlns="http://www.w3.org/2000/svg" viewBox="0 0 151.1 60.2">
  <defs>
    <style>
      .cls-1 {
        fill: #f5a351;
      }
    </style>
  </defs>
  <g>
    <path class="cls-1" d="M57.8,18.5c-1.5-3.6-3.7-6.8-6.4-9.5-2.8-2.8-6-4.9-9.5-6.4C38.1,1,34.2,.2,30.2,.2s-8,.8-11.7,2.4c-3.6,1.5-6.8,3.7-9.5,6.4-2.8,2.8-4.9,6-6.4,9.5C1,22.2,.2,26.1,.2,30.2s.8,8,2.4,11.7c1.5,3.6,3.7,6.8,6.4,9.5,2.8,2.8,6,4.9,9.5,6.4,3.7,1.6,7.6,2.4,11.7,2.4s8-.8,11.7-2.4c3.6-1.5,6.8-3.7,9.5-6.4,2.8-2.8,4.9-6,6.4-9.5,1.6-3.7,2.4-7.6,2.4-11.7s-.8-8-2.4-11.7Zm.2,11.7c0,15.4-12.5,27.9-27.9,27.9S2.3,45.5,2.3,30.2,14.8,2.3,30.2,2.3s27.9,12.5,27.9,27.9Z"/>
    <path class="cls-1" d="M34.9,23.6c.1,.7,.3,1.9-.1,3.2-.1,.3-.2,.6-.4,.9-1.3,0-2.6-.1-3.9-.2,.5-1.1,1.7-1.7,2.7-3.5,.3-.5,.7-1.3,.9-2.4,.4-2.3-.6-4.2-1-4.9-.3-.5-.9-1.4-1.9-2.1,.7,1.1,1.7,3.1,1.4,5.4-.1,.8-.4,1.4-.7,2.3-1.2,2.8-2.6,3.7-3.2,5.2-.6,0-1.3,0-1.9,0,.4-.6,1-1.1,1.4-2,.5-1.1,.6-2.9-.9-5.9,.2,1,.4,2.5-.2,4.2-.6,1.9-1.7,2.7-2.2,3.8-7.6,.6-16.8,2.5-17.7,6.9-.3,1.3,.2,2.8,.7,4.6,1.1,3.6,3.1,5.9,4.1,7.1,4.2,4.8,9.2,6.6,10.4,7,1.2,.4,6.7,2.1,13.4,.5,9.2-2.2,14-9,15.1-10.8,1.4-2.3,2-4.6,2-4.6,.3-1.1,.6-2.7,.5-3.6-.4-3.3-8.4-6.2-17.7-7,.3-.9,.3-2.2-.8-4.1Zm15.6,10.2c.3,.3,.2,.7,.2,.7s0,.4-.5,.9c-4.1,3.6-20.1,3.5-20.1,3.5,0,0-16.3,0-20.1-3.6-.4-.4-.4-.8-.4-.8s0-.4,.3-.8c2.4-2.8,9.5-3.8,14.6-4.2,.1,.9,.8,2.2,2.8,3.8-.6-1-1.3-2.4-1.2-3.9,1,0,1.8,0,2.5-.1,0,.4,.1,.8,.3,1.3,.9,2.2,3.2,3,3.8,3.2-.6-.5-1.9-1.8-2.3-3.9,0-.2,0-.4-.1-.7,.3,0,1.4,0,3,0-.2,.3-.4,.7-.4,1.1,0,.7,.3,1.8,2.1,3.3-.5-.8-1.1-2-.8-3.3,.1-.4,.3-.8,.5-1,5.3,.3,13.6,1.4,15.9,4.4Z"/>
    <path class="cls-1" d="M30.1,36.3c-3.6,0-7.8-.4-11.1-.9-3.5-.6-4.7-1.1-5.2-1.3,.3-.1,.8-.4,2-.7,1.6-.4,4-.8,7-1.3h.3l-.2-1.4h-.3c-3.3,.5-5.8,1-7.5,1.4-1.8,.5-3,1-2.9,1.9,0,.9,1.1,1.4,2.1,1.7,1,.3,2.4,.7,4.2,.9,3.4,.6,7.7,.9,11.5,1,.4,0,.8,0,1.1,0,3.4,0,6.8-.2,10.2-.7h.3l-.2-1.4h-.3c-3.7,.5-7.4,.8-11.1,.7Z"/>
  </g>
  <g>
    <g>
      <path class="cls-1" d="M75.2,24.2c0,.8-.3,1.6-.7,2.2-.4,.6-1,1.2-1.7,1.5-.7,.4-1.6,.5-2.6,.5s-2-.2-2.7-.7c-.8-.5-1.4-1.2-1.8-2.1-.4-.9-.6-1.9-.6-3.2v-.8c0-1.2,.2-2.3,.6-3.2,.4-.9,1-1.6,1.8-2.1,.8-.5,1.7-.7,2.7-.7s1.9,.2,2.6,.6,1.3,.9,1.7,1.6c.4,.7,.6,1.4,.7,2.3h-2.6c0-.7-.2-1.3-.6-1.6-.3-.4-.9-.6-1.7-.6s-1,.1-1.4,.4c-.4,.3-.6,.7-.8,1.2-.2,.6-.3,1.3-.3,2.1v.8c0,.8,0,1.6,.2,2.1,.2,.6,.4,1,.8,1.2,.4,.3,.8,.4,1.4,.4s.9,0,1.3-.2c.3-.2,.6-.4,.8-.7,.2-.3,.3-.7,.3-1.2h2.6Z"/>
      <path class="cls-1" d="M76.8,23.6c0-.9,.2-1.7,.5-2.4,.3-.7,.8-1.3,1.5-1.7,.6-.4,1.4-.6,2.4-.6s1.7,.2,2.4,.6c.6,.4,1.1,1,1.5,1.7s.5,1.5,.5,2.4v.2c0,.9-.2,1.7-.5,2.4-.3,.7-.8,1.3-1.5,1.7-.6,.4-1.4,.6-2.4,.6s-1.7-.2-2.4-.6c-.6-.4-1.1-1-1.5-1.7-.3-.7-.5-1.5-.5-2.4v-.2Zm2.6,.2c0,.5,0,.9,.2,1.3,.1,.4,.3,.7,.6,.9s.6,.3,1.1,.3,.8-.1,1-.3c.3-.2,.5-.5,.6-.9,.1-.4,.2-.8,.2-1.3v-.2c0-.5,0-.9-.2-1.3-.1-.4-.3-.7-.6-.9-.3-.2-.6-.4-1.1-.4s-.8,.1-1.1,.4c-.3,.2-.4,.6-.6,.9-.1,.4-.2,.8-.2,1.3v.2Z"/>
      <path class="cls-1" d="M90.6,25.8v2.5h-1.5l-2.3-9.1h2.5l1.3,6.6Zm1.4-6.6h1.6l-.5,2.9-1.9,6.3h-1.3l.2-2.5,1.9-6.6Zm3.7,6.6l.2,2.5h-1.3l-1.9-6.3-.5-2.9h1.6l1.9,6.6Zm.8-6.6h2.5l-2.3,9.1h-1.6v-2.6l1.4-6.5Z"/>
      <path class="cls-1" d="M100.3,23.6c0-.9,.2-1.7,.5-2.4,.3-.7,.8-1.3,1.5-1.7,.6-.4,1.4-.6,2.4-.6s1.7,.2,2.4,.6c.6,.4,1.1,1,1.5,1.7s.5,1.5,.5,2.4v.2c0,.9-.2,1.7-.5,2.4-.3,.7-.8,1.3-1.5,1.7-.6,.4-1.4,.6-2.4,.6s-1.7-.2-2.4-.6c-.6-.4-1.1-1-1.5-1.7-.3-.7-.5-1.5-.5-2.4v-.2Zm2.6,.2c0,.5,0,.9,.2,1.3,.1,.4,.3,.7,.6,.9s.6,.3,1.1,.3,.8-.1,1-.3c.3-.2,.5-.5,.6-.9,.1-.4,.2-.8,.2-1.3v-.2c0-.5,0-.9-.2-1.3-.1-.4-.3-.7-.6-.9-.3-.2-.6-.4-1.1-.4s-.8,.1-1.1,.4c-.3,.2-.4,.6-.6,.9-.1,.4-.2,.8-.2,1.3v.2Z"/>
      <path class="cls-1" d="M113.5,28.3h-2.5v-9.1h2.4l.2,2.1v7Zm2.7-6.7c-.1,0-.3,0-.4,0s-.3,0-.5,0c-.4,0-.8,0-1.1,.2s-.5,.3-.6,.6c-.1,.3-.2,.6-.2,1l-.5-.2c0-.8,.1-1.5,.3-2.1,.2-.6,.5-1.1,.9-1.5,.4-.4,.9-.5,1.4-.5s.3,0,.4,0c.1,0,.3,0,.3,0v2.5Z"/>
      <path class="cls-1" d="M120.4,28.3h-2.5V15.3h2.5v13Zm1.8-4.5l-2.2,2.2-.9-1.8,1.7-2.2,2.3-2.7h3.1l-3.9,4.6Zm-1.3,.4l1.8-1.5,3.8,5.7h-2.9l-2.6-4.2Z"/>
      <path class="cls-1" d="M127.6,16.8c0-.4,.1-.7,.4-.9s.6-.4,1-.4,.8,.1,1,.4,.4,.6,.4,.9-.1,.7-.4,.9-.6,.4-1,.4-.8-.1-1-.4-.4-.6-.4-.9Zm2.7,11.5h-2.6v-9.1h2.6v9.1Z"/>
      <path class="cls-1" d="M135.3,28.3h-2.5v-9.1h2.4l.2,1.9v7.2Zm-1-4.8c0-.9,.1-1.7,.4-2.4s.7-1.2,1.3-1.5c.5-.4,1.2-.5,1.9-.5s1.1,.1,1.5,.3c.4,.2,.8,.6,1,1.1,.2,.5,.4,1.2,.4,2.1v5.8h-2.6v-5.8c0-.4,0-.7-.2-.9-.1-.2-.3-.3-.5-.4-.2,0-.5-.1-.8-.1s-.6,0-.8,.2c-.2,.1-.4,.3-.6,.5-.1,.2-.3,.5-.3,.8,0,.3-.1,.6-.1,.9h-.7Z"/>
      <path class="cls-1" d="M142.6,23.7c0-.9,.2-1.7,.5-2.4,.3-.7,.7-1.2,1.3-1.6s1.2-.6,2-.6,1.1,.1,1.5,.4c.4,.2,.7,.6,1,1,.3,.4,.5,.9,.6,1.5,.1,.6,.3,1.2,.4,1.9v.2c-.1,.8-.3,1.6-.6,2.3-.3,.7-.6,1.2-1.1,1.6-.5,.4-1.1,.6-1.8,.6s-1.4-.2-2-.6c-.6-.4-1-1-1.3-1.6s-.5-1.5-.5-2.4v-.2Zm8.4-4.5v8.8c0,.8-.2,1.6-.6,2.1-.4,.6-.9,1-1.6,1.3-.7,.3-1.4,.5-2.3,.5s-.8,0-1.2-.2c-.4-.1-.8-.3-1.2-.5-.4-.2-.7-.5-1-.8l1.1-1.6c.3,.3,.6,.5,1,.7,.4,.2,.8,.3,1.2,.3,.6,0,1.1-.2,1.5-.5s.5-.8,.5-1.4v-6.7l.2-2.1h2.3Zm-5.9,4.7c0,.5,0,.9,.2,1.3s.3,.7,.6,.9c.3,.2,.6,.3,1,.3s.8,0,1-.3c.3-.2,.5-.4,.6-.8,.1-.3,.2-.7,.2-1.1v-.9c0-.4,0-.7-.1-1s-.2-.5-.3-.7c-.2-.2-.3-.3-.6-.4-.2-.1-.5-.2-.8-.2s-.7,.1-1,.3-.5,.5-.6,.9c-.1,.4-.2,.8-.2,1.3v.2Z"/>
    </g>
    <g>
      <path class="cls-1" d="M74.9,40.8c0,.8-.3,1.5-.7,2.1s-.9,1.1-1.5,1.5c-.7,.4-1.5,.5-2.5,.5s-1.8-.2-2.5-.7c-.7-.5-1.3-1.1-1.7-2-.4-.9-.6-1.9-.6-3v-1.2c0-1.1,.2-2.1,.6-3,.4-.9,1-1.5,1.7-2,.7-.5,1.6-.7,2.6-.7s1.7,.2,2.4,.5c.6,.3,1.1,.8,1.5,1.4,.4,.6,.6,1.3,.7,2.1h-1.6c-.1-.9-.4-1.5-.8-2-.4-.5-1.1-.7-2.1-.7s-1.3,.2-1.8,.5c-.5,.4-.9,.9-1.1,1.5-.3,.7-.4,1.4-.4,2.3v1.3c0,.8,.1,1.5,.3,2.2,.2,.7,.6,1.2,1,1.6,.5,.4,1.1,.6,1.8,.6s1.2-.1,1.6-.3c.4-.2,.7-.5,.9-.9s.4-.9,.5-1.5h1.6Z"/>
      <path class="cls-1" d="M83.4,40.3h-1.6c-.9,0-1.6,.1-2.1,.4-.5,.3-.7,.7-.7,1.3s.1,.8,.4,1.1c.3,.3,.7,.5,1.3,.5s.9-.1,1.3-.3c.4-.2,.7-.5,.9-.8,.2-.3,.3-.6,.3-.9l.7,.8c0,.2-.1,.5-.3,.8-.2,.3-.4,.6-.7,.8s-.6,.5-1,.6c-.4,.2-.8,.3-1.3,.3s-1.2-.1-1.6-.4c-.5-.2-.8-.6-1.1-1s-.4-.9-.4-1.4c0-1,.4-1.7,1.1-2.2,.7-.5,1.7-.8,3-.8h1.8v1.1Zm-.3-1.8c0-.5-.2-1-.5-1.3-.3-.3-.8-.5-1.4-.5s-.7,0-1,.2c-.3,.1-.5,.3-.7,.5-.2,.2-.2,.5-.2,.7h-1.6c0-.4,.1-.9,.4-1.3,.3-.4,.7-.8,1.3-1,.5-.3,1.2-.4,1.9-.4s1.3,.1,1.8,.3,.9,.6,1.2,1c.3,.5,.4,1,.4,1.7v4.3c0,.3,0,.6,0,1,0,.3,.1,.6,.2,.9h-1.6c0,0-.1-.3-.2-.6s0-.6,0-.8v-4.7Z"/>
      <path class="cls-1" d="M92.3,36.8h-5v-1.2h5v1.2Zm-3.5,7.9v-10.1c0-1,.3-1.7,.8-2.3,.5-.5,1.3-.8,2.2-.8s.4,0,.5,0c.2,0,.4,0,.5,.1v1.3c-.2,0-.3,0-.5,0-.1,0-.3,0-.4,0-.5,0-.9,.1-1.2,.4-.3,.3-.4,.7-.4,1.3v10.1h-1.6Z"/>
      <path class="cls-1" d="M98.7,44.9c-.8,0-1.6-.2-2.2-.6-.6-.4-1.1-.9-1.5-1.6s-.5-1.4-.5-2.3v-.4c0-1,.2-1.8,.6-2.5,.4-.7,.9-1.2,1.5-1.6,.6-.4,1.3-.6,1.9-.6s1.6,.2,2.1,.6c.6,.4,1,.9,1.2,1.6,.3,.7,.4,1.4,.4,2.3v.7h-6.8v-1.3h5.2c0-.5-.1-.9-.2-1.3s-.4-.7-.7-1c-.3-.3-.7-.4-1.3-.4s-.9,.1-1.3,.4c-.4,.3-.6,.7-.9,1.2-.2,.5-.3,1.1-.3,1.9v.4c0,.6,.1,1.1,.3,1.6,.2,.5,.5,.9,.9,1.1,.4,.3,.9,.4,1.5,.4s1-.1,1.4-.3,.7-.5,1-.9l1,.7c-.3,.4-.7,.9-1.3,1.2s-1.3,.5-2.2,.5Zm.6-13.1h1.9l-2.3,2.5h-1.3l1.6-2.5Z"/>
    </g>
  </g>
</svg>