<svg xmlns="http://www.w3.org/2000/svg" xmlns:xlink="http://www.w3.org/1999/xlink" width="49.354" height="39.483" viewBox="0 0 49.354 39.483">
  <defs>
    <linearGradient id="linear-gradient" x1="0.5" x2="0.5" y2="1" gradientUnits="objectBoundingBox">
      <stop offset="0" stop-color="#f5a351"/>
      <stop offset="0.389" stop-color="#d95252" stop-opacity="0.71"/>
      <stop offset="1" stop-color="#6e6ae3"/>
    </linearGradient>
  </defs>
  <path id="Ikon_AV_IT" data-name="Ikon AV/IT" d="M48.12,32.08h-18.7A2.431,2.431,0,0,1,26.9,34.548H22.209a2.619,2.619,0,0,1-2.527-2.468H1.234A1.237,1.237,0,0,0,0,33.314v1.234a4.95,4.95,0,0,0,4.935,4.935H44.418a4.95,4.95,0,0,0,4.935-4.935V33.314A1.237,1.237,0,0,0,48.12,32.08ZM44.418,3.7a3.712,3.712,0,0,0-3.7-3.7H8.637a3.712,3.712,0,0,0-3.7,3.7V29.612H44.418ZM39.483,24.677H9.871V4.935H39.483Z" fill="url(#linear-gradient)"/>
</svg>
