<svg id="Ikon" xmlns="http://www.w3.org/2000/svg" xmlns:xlink="http://www.w3.org/1999/xlink" width="40.063" height="40" viewBox="0 0 40.063 40">
  <defs>
    <linearGradient id="linear-gradient" x1="0.5" x2="0.5" y2="1" gradientUnits="objectBoundingBox">
      <stop offset="0" stop-color="#f5a351"/>
      <stop offset="0.389" stop-color="#d95252" stop-opacity="0.71"/>
      <stop offset="1" stop-color="#6e6ae3"/>
    </linearGradient>
  </defs>
  <path id="Path_3216" data-name="Path 3216" d="M143.938,34.849a.936.936,0,0,0-.5.127,44.352,44.352,0,0,1-18.612,3.78,44.32,44.32,0,0,1-18.608-3.78.935.935,0,0,0-.46-.112.957.957,0,0,0-.908.767.977.977,0,0,0,.519,1.08s.642.322,1.8.779l-2.034,7.743a.973.973,0,0,0,.671,1.189l7.357,2.011a.935.935,0,0,0,.723-.1.968.968,0,0,0,.443-.591l2.038-7.758c1.162.2,2.4.361,3.706.484v8h0a.976.976,0,0,0,.452.825.935.935,0,0,0,.925.042l3.379-1.724,3.383,1.724a.935.935,0,0,0,.925-.042.976.976,0,0,0,.452-.825v-8q1.371-.129,2.638-.316l6.671,7.033a.939.939,0,0,0,.932.265.962.962,0,0,0,.678-.7l2.3-9.384c.961-.39,1.482-.653,1.482-.653h0a.976.976,0,0,0,.556-1.073.958.958,0,0,0-.9-.788Z" transform="translate(-104.797 -34.849)" fill="url(#linear-gradient)"/>
  <path id="Path_3217" data-name="Path 3217" d="M143.567,233.3a.9.9,0,0,0-.1,0,.946.946,0,0,0-.7.4c-5.486,7.462-14.755,10.814-22.722,12.248a64.808,64.808,0,0,1-14.519.961h0a.937.937,0,0,0-.716.217.984.984,0,0,0-.1,1.4.944.944,0,0,0,.678.32s.45.024.96.045l4.464,8.2h0a.943.943,0,0,0,1.666,0l4.756-8.74c1.015-.132,2.064-.291,3.141-.484l.066-.013,2.21,7.717a.949.949,0,0,0,1.18.66l7.306-2.179h0a.974.974,0,0,0,.647-1.2l-2.142-7.489q1.237-.466,2.457-1.016l4.171,6.789a.942.942,0,0,0,1.62-.007l1.967-3.294,3.763-.373h0a.953.953,0,0,0,.762-.537.987.987,0,0,0-.046-.943l-4.126-6.715a26.731,26.731,0,0,0,4.08-4.394.987.987,0,0,0,.107-1.009.951.951,0,0,0-.832-.556Z" transform="translate(-104.466 -217.591)" fill="url(#linear-gradient)"/>
  <path id="Path_3218" data-name="Path 3218" d="M169.72,221.655a.971.971,0,0,0-.824.548,5.191,5.191,0,0,0-.645,2.835,5.314,5.314,0,0,0,.645,1.917,3.572,3.572,0,0,1,.448,1.24,3.159,3.159,0,0,1-.448,1.774h0a.971.971,0,0,0,1.738.867,5.184,5.184,0,0,0,.641-2.835,5.315,5.315,0,0,0-.641-1.917,3.573,3.573,0,0,1-.448-1.24,3.159,3.159,0,0,1,.448-1.774h0a.971.971,0,0,0-.914-1.415Z" transform="translate(-162.926 -206.509)" fill="url(#linear-gradient)"/>
  <path id="Path_3219" data-name="Path 3219" d="M438.068,151.636a.971.971,0,0,0-.828.548,5.2,5.2,0,0,0-.641,2.838,5.294,5.294,0,0,0,.641,1.914,3.588,3.588,0,0,1,.452,1.24,3.181,3.181,0,0,1-.452,1.777h0a.971.971,0,0,0,1.738.867,5.2,5.2,0,0,0,.645-2.838,5.292,5.292,0,0,0-.645-1.914,3.573,3.573,0,0,1-.448-1.24,3.169,3.169,0,0,1,.448-1.777h0a.971.971,0,0,0-.91-1.415Z" transform="translate(-409.529 -142.167)" fill="url(#linear-gradient)"/>
  <path id="Path_3220" data-name="Path 3220" d="M236.215,221.8a2.913,2.913,0,1,0,2.913,2.913A2.929,2.929,0,0,0,236.215,221.8Zm0,1.942a.971.971,0,1,1-.971.971A.957.957,0,0,1,236.215,223.742Z" transform="translate(-222.826 -206.599)" fill="url(#linear-gradient)"/>
  <path id="Path_3221" data-name="Path 3221" d="M328.58,304.433a.971.971,0,1,1-.971-.971.97.97,0,0,1,.971.971Z" transform="translate(-308.531 -281.57)" fill="url(#linear-gradient)"/>
  <path id="Path_3222" data-name="Path 3222" d="M130.246,292.763a.971.971,0,1,1-.971-.971A.971.971,0,0,1,130.246,292.763Z" transform="translate(-126.32 -270.851)" fill="url(#linear-gradient)"/>
  <path id="Path_3223" data-name="Path 3223" d="M106.91,222.763a.971.971,0,1,1-.971-.971.97.97,0,0,1,.971.971Z" transform="translate(-104.926 -206.556)" fill="url(#linear-gradient)"/>
  <path id="Path_3224" data-name="Path 3224" d="M246.91,164.427a.971.971,0,1,1-.971-.971.97.97,0,0,1,.971.971Z" transform="translate(-233.517 -152.974)" fill="url(#linear-gradient)"/>
  <path id="Path_3225" data-name="Path 3225" d="M340.246,234.427a.971.971,0,1,1-.971-.971A.971.971,0,0,1,340.246,234.427Z" transform="translate(-319.246 -217.269)" fill="url(#linear-gradient)"/>
  <path id="Path_3226" data-name="Path 3226" d="M386.909,257.763a.971.971,0,1,1-.971-.971A.97.97,0,0,1,386.909,257.763Z" transform="translate(-362.107 -238.704)" fill="url(#linear-gradient)"/>
  <path id="Path_3227" data-name="Path 3227" d="M561.909,187.763a.971.971,0,1,1-.971-.971A.97.97,0,0,1,561.909,187.763Z" transform="translate(-522.865 -174.409)" fill="url(#linear-gradient)"/>
  <path id="Path_3228" data-name="Path 3228" d="M503.579,222.763a.971.971,0,1,1-.971-.971A.971.971,0,0,1,503.579,222.763Z" transform="translate(-469.389 -206.556)" fill="url(#linear-gradient)"/>
  <path id="Path_3229" data-name="Path 3229" d="M258.58,456.1a.971.971,0,1,1-.971-.971.971.971,0,0,1,.971.971Z" transform="translate(-244.236 -420.954)" fill="url(#linear-gradient)"/>
  <path id="Path_3230" data-name="Path 3230" d="M468.58,491.1a.971.971,0,1,1-.971-.971.971.971,0,0,1,.971.971Z" transform="translate(-437.121 -453.041)" fill="url(#linear-gradient)"/>
  <path id="Path_3231" data-name="Path 3231" d="M550.246,444.433a.971.971,0,1,1-.971-.971A.971.971,0,0,1,550.246,444.433Z" transform="translate(-512.172 -410.26)" fill="url(#linear-gradient)"/>
  <path id="Path_3232" data-name="Path 3232" d="M445.246,421.1a.971.971,0,1,1-.971-.971A.971.971,0,0,1,445.246,421.1Z" transform="translate(-415.689 -388.726)" fill="url(#linear-gradient)"/>
  <path id="Path_3233" data-name="Path 3233" d="M246.91,327.763a.971.971,0,1,1-.971-.971.97.97,0,0,1,.971.971Z" transform="translate(-233.517 -302.999)" fill="url(#linear-gradient)"/>
</svg>
