<svg xmlns="http://www.w3.org/2000/svg" width="32.237" height="32.237" viewBox="0 0 32.237 32.237">
  <path id="Icon_metro-linkedin" data-name="Icon metro-linkedin" d="M29.393,1.928H7.985A5.431,5.431,0,0,0,2.571,7.343V28.75a5.431,5.431,0,0,0,5.415,5.415H29.393a5.431,5.431,0,0,0,5.415-5.415V7.343a5.431,5.431,0,0,0-5.415-5.415ZM14.659,28.12H10.63v-14.1h4.03v14.1ZM12.645,12a2.015,2.015,0,1,1,2.015-2.015A2.015,2.015,0,0,1,12.645,12ZM28.763,28.12h-4.03V20.061a2.015,2.015,0,1,0-4.03,0V28.12h-4.03v-14.1H20.7v2.5c.831-1.142,2.1-2.5,3.526-2.5a4.805,4.805,0,0,1,4.533,5.037V28.12Z" transform="translate(-2.571 -1.928)" fill="#f5a351"/>
</svg>
