<svg xmlns="http://www.w3.org/2000/svg" width="68.348" height="54.678" viewBox="0 0 68.348 54.678">
  <path id="Icon_awesome-laptop" data-name="Icon awesome-laptop" d="M66.639,44.426H40.746a3.367,3.367,0,0,1-3.5,3.417H30.757a3.627,3.627,0,0,1-3.5-3.417H1.709A1.714,1.714,0,0,0,0,46.135v1.709a6.855,6.855,0,0,0,6.835,6.835H61.513a6.855,6.855,0,0,0,6.835-6.835V46.135A1.714,1.714,0,0,0,66.639,44.426Zm-5.126-39.3A5.141,5.141,0,0,0,56.387,0H11.961A5.141,5.141,0,0,0,6.835,5.126V41.009H61.513ZM54.679,34.174H13.67V6.835H54.679Z" fill="#fff"/>
</svg>
