<svg xmlns="http://www.w3.org/2000/svg" width="76.987" height="88.895" viewBox="0 0 76.987 88.895">
  <g id="Group_274" data-name="Group 274" transform="translate(-1289.61 -2270)">
    <path id="Path_3190" data-name="Path 3190" d="M187.191,325.342a2.178,2.178,0,0,1-1.485,2.06l-14.061,4.683,1.962,13.085a2.161,2.161,0,0,0,2.147,1.853h19.631a2.15,2.15,0,0,0,2.135-1.853L203.1,308H187.19Z" transform="translate(1121.934 2011.871)" fill="#fff"/>
    <path id="Path_3191" data-name="Path 3191" d="M166.319,308H151.142v20.835l15.177-5.052Z" transform="translate(1138.469 2011.868)" fill="#fff"/>
    <path id="Path_3192" data-name="Path 3192" d="M214.729,188.779a7.588,7.588,0,1,0-7.588-7.588A7.6,7.6,0,0,0,214.729,188.779Zm0-10.841a3.252,3.252,0,1,1-3.252,3.252A3.255,3.255,0,0,1,214.729,177.938Z" transform="translate(1093.31 2120.248)" fill="#fff"/>
    <path id="Path_3193" data-name="Path 3193" d="M166.678,231.769a2.168,2.168,0,1,1-2.168-2.168,2.168,2.168,0,0,1,2.168,2.168" transform="translate(1129.437 2075.09)" fill="#fff"/>
    <path id="Path_3194" data-name="Path 3194" d="M200.278,153.369a2.168,2.168,0,1,1-2.168-2.168,2.169,2.169,0,0,1,2.168,2.168" transform="translate(1102.341 2138.313)" fill="#fff"/>
    <path id="Path_3195" data-name="Path 3195" d="M413.153,443.734l-2.417-10.841a2.14,2.14,0,0,0-2.114-1.691H385.229a2.181,2.181,0,0,0-2.114,1.691L380.7,443.733a2.183,2.183,0,0,0,2.125,2.646h3.263v-4.336a2.168,2.168,0,1,1,4.336,0v4.336h4.336v-4.336a2.168,2.168,0,1,1,4.336,0v4.336h4.336v-4.336a2.168,2.168,0,1,1,4.336,0v4.336h3.263a2.185,2.185,0,0,0,2.126-2.645Z" transform="translate(953.393 1912.516)" fill="#fff"/>
    <path id="Path_3196" data-name="Path 3196" d="M440.729,377.369a2.174,2.174,0,0,0-2.168-2.168H427.72a2.174,2.174,0,0,0-2.168,2.168V381.7h15.177Z" transform="translate(917.18 1957.676)" fill="#fff"/>
    <path id="Path_3197" data-name="Path 3197" d="M454.443,53.65a3.252,3.252,0,1,0-6.5,0v55.288h6.5Z" transform="translate(899.128 2219.602)" fill="#fff"/>
  </g>
</svg>
