<svg xmlns="http://www.w3.org/2000/svg" width="79.888" height="79.764" viewBox="0 0 79.888 79.764">
  <g id="noun-decoration-3100023" transform="translate(-104.466 -34.849)">
    <path id="Path_3216" data-name="Path 3216" d="M182.818,34.85a1.9,1.9,0,0,0-1,.248s-14.76,7.39-37.114,7.39S107.6,35.1,107.6,35.1a1.9,1.9,0,1,0-1.694,3.39s1.28.63,3.585,1.522l-4.056,15.137a1.9,1.9,0,0,0,1.338,2.324l14.67,3.931a1.9,1.9,0,0,0,2.324-1.345l4.064-15.167c2.317.383,4.784.705,7.39.946v15.63h0a1.9,1.9,0,0,0,2.747,1.694l6.737-3.37,6.747,3.37a1.9,1.9,0,0,0,2.747-1.694V45.833q2.734-.252,5.26-.617l13.3,13.749a1.9,1.9,0,0,0,3.21-.857l4.587-18.344c1.916-.762,2.956-1.277,2.956-1.277h0a1.9,1.9,0,0,0-.7-3.639Z" transform="translate(-0.302 0)" fill="#fff"/>
    <path id="Path_3217" data-name="Path 3217" d="M182.438,233.3a1.806,1.806,0,0,0-.194,0,1.894,1.894,0,0,0-1.4.778c-10.94,14.587-29.424,21.14-45.31,23.943a131.79,131.79,0,0,1-28.952,1.878h0a1.9,1.9,0,1,0-.274,3.783s.9.048,1.915.087l8.9,16.025h0a1.9,1.9,0,0,0,3.322,0l9.484-17.085c2.024-.257,4.117-.568,6.263-.947.043-.007.088-.018.132-.025l4.408,15.085a1.9,1.9,0,0,0,2.354,1.29l14.57-4.26h0a1.9,1.9,0,0,0,1.29-2.354l-4.272-14.639q2.466-.91,4.9-1.987l8.318,13.272a1.9,1.9,0,0,0,3.231-.014l3.922-6.439,7.5-.728h0a1.9,1.9,0,0,0,1.429-2.893l-8.227-13.126a52.677,52.677,0,0,0,8.137-8.589,1.9,1.9,0,0,0-1.446-3.058Z" transform="translate(0 -166.17)" fill="#fff"/>
    <path id="Path_3218" data-name="Path 3218" d="M171.141,221.656a1.9,1.9,0,0,0-1.612,1.072,10.148,10.148,0,0,0-1.261,5.541,10.386,10.386,0,0,0,1.261,3.748,6.984,6.984,0,0,1,.876,2.424,6.175,6.175,0,0,1-.876,3.468h0a1.9,1.9,0,0,0,3.4,1.695,10.134,10.134,0,0,0,1.254-5.541,10.391,10.391,0,0,0-1.254-3.748,6.985,6.985,0,0,1-.876-2.424,6.175,6.175,0,0,1,.876-3.468h0a1.9,1.9,0,0,0-1.786-2.767Z" transform="translate(-53.393 -156.415)" fill="#fff"/>
    <path id="Path_3219" data-name="Path 3219" d="M439.489,151.638a1.9,1.9,0,0,0-1.619,1.071,10.156,10.156,0,0,0-1.254,5.548A10.349,10.349,0,0,0,437.87,162a7.014,7.014,0,0,1,.883,2.424,6.219,6.219,0,0,1-.883,3.475h0a1.9,1.9,0,0,0,3.4,1.7,10.17,10.17,0,0,0,1.261-5.548,10.346,10.346,0,0,0-1.261-3.741,6.984,6.984,0,0,1-.876-2.424,6.2,6.2,0,0,1,.876-3.475h0a1.9,1.9,0,0,0-1.779-2.767Z" transform="translate(-278.085 -97.787)" fill="#fff"/>
    <path id="Path_3220" data-name="Path 3220" d="M239,221.8a5.7,5.7,0,1,0,5.7,5.7A5.725,5.725,0,0,0,239,221.8Zm0,3.8a1.9,1.9,0,1,1-1.9,1.9A1.871,1.871,0,0,1,239,225.6Z" transform="translate(-107.877 -156.538)" fill="#fff"/>
    <path id="Path_3221" data-name="Path 3221" d="M330.434,305.36a1.9,1.9,0,1,1-1.9-1.9,1.9,1.9,0,0,1,1.9,1.9Z" transform="translate(-186.029 -224.915)" fill="#fff"/>
    <path id="Path_3222" data-name="Path 3222" d="M132.1,293.69a1.9,1.9,0,1,1-1.9-1.9A1.9,1.9,0,0,1,132.1,293.69Z" transform="translate(-19.96 -215.143)" fill="#fff"/>
    <path id="Path_3223" data-name="Path 3223" d="M108.764,223.69a1.9,1.9,0,1,1-1.9-1.9,1.9,1.9,0,0,1,1.9,1.9Z" transform="translate(-0.42 -156.531)" fill="#fff"/>
    <path id="Path_3224" data-name="Path 3224" d="M248.764,165.354a1.9,1.9,0,1,1-1.9-1.9,1.9,1.9,0,0,1,1.9,1.9Z" transform="translate(-117.645 -107.685)" fill="#fff"/>
    <path id="Path_3225" data-name="Path 3225" d="M342.1,235.354a1.9,1.9,0,1,1-1.9-1.9A1.9,1.9,0,0,1,342.1,235.354Z" transform="translate(-195.797 -166.298)" fill="#fff"/>
    <path id="Path_3226" data-name="Path 3226" d="M388.764,258.69a1.9,1.9,0,1,1-1.9-1.9A1.9,1.9,0,0,1,388.764,258.69Z" transform="translate(-234.87 -185.837)" fill="#fff"/>
    <path id="Path_3227" data-name="Path 3227" d="M563.763,188.69a1.9,1.9,0,1,1-1.9-1.9A1.9,1.9,0,0,1,563.763,188.69Z" transform="translate(-381.4 -127.225)" fill="#fff"/>
    <path id="Path_3228" data-name="Path 3228" d="M505.434,223.69a1.9,1.9,0,1,1-1.9-1.9,1.9,1.9,0,0,1,1.9,1.9Z" transform="translate(-332.56 -156.531)" fill="#fff"/>
    <path id="Path_3229" data-name="Path 3229" d="M260.434,457.024a1.9,1.9,0,1,1-1.9-1.9,1.9,1.9,0,0,1,1.9,1.9Z" transform="translate(-127.416 -351.906)" fill="#fff"/>
    <path id="Path_3230" data-name="Path 3230" d="M470.434,492.023a1.9,1.9,0,1,1-1.9-1.9,1.9,1.9,0,0,1,1.9,1.9Z" transform="translate(-303.253 -381.212)" fill="#fff"/>
    <path id="Path_3231" data-name="Path 3231" d="M552.1,445.36a1.9,1.9,0,1,1-1.9-1.9A1.9,1.9,0,0,1,552.1,445.36Z" transform="translate(-371.634 -342.14)" fill="#fff"/>
    <path id="Path_3232" data-name="Path 3232" d="M447.1,422.023a1.9,1.9,0,1,1-1.9-1.9A1.9,1.9,0,0,1,447.1,422.023Z" transform="translate(-283.715 -322.6)" fill="#fff"/>
    <path id="Path_3233" data-name="Path 3233" d="M248.764,328.69a1.9,1.9,0,1,1-1.9-1.9,1.9,1.9,0,0,1,1.9,1.9Z" transform="translate(-117.645 -244.45)" fill="#fff"/>
  </g>
</svg>
