<svg xmlns="http://www.w3.org/2000/svg" width="61.659" height="53.952" viewBox="0 0 61.659 53.952">
  <path id="Icon_awesome-camera" data-name="Icon awesome-camera" d="M61.659,15.738V50.421A5.782,5.782,0,0,1,55.879,56.2H5.781A5.782,5.782,0,0,1,0,50.421V15.738A5.782,5.782,0,0,1,5.781,9.957h10.6L17.859,6A5.772,5.772,0,0,1,23.267,2.25H38.38A5.772,5.772,0,0,1,43.788,6l1.493,3.962h10.6A5.782,5.782,0,0,1,61.659,15.738ZM45.281,33.08A14.451,14.451,0,1,0,30.83,47.531,14.463,14.463,0,0,0,45.281,33.08Zm-3.854,0a10.6,10.6,0,1,1-10.6-10.6A10.613,10.613,0,0,1,41.427,33.08Z" transform="translate(0 -2.25)" fill="#fff"/>
</svg>
