<svg id="Group_94" data-name="Group 94" xmlns="http://www.w3.org/2000/svg" xmlns:xlink="http://www.w3.org/1999/xlink" width="296.802" height="131.614" viewBox="0 0 296.802 131.614">
  <defs>
    <clipPath id="clip-path">
      <rect id="Rectangle_51" data-name="Rectangle 51" width="292.905" height="131.614" fill="none"/>
    </clipPath>
    <clipPath id="clip-path-2">
      <rect id="Rectangle_52" data-name="Rectangle 52" width="296.802" height="131.614" fill="none"/>
    </clipPath>
  </defs>
  <path id="Path_13" data-name="Path 13" d="M127.1,116.787l12.875-22.3H104.958l-12.874,22.3H83.329L74.8,102.011h0l8.7-15.068h18.371l4.357-7.546H79.1L66.043,102.011h0l12.888,22.322H96.482L105,139.086h34.977Zm-.236,14.754H109.4l-8.517-14.754h0l-.021-.036,8.5-14.716h17.51l-8.518,14.752h0Z" transform="translate(-37.087 -44.587)" fill="#232929" fill-rule="evenodd"/>
  <g id="Group_91" data-name="Group 91">
    <g id="Group_90" data-name="Group 90" clip-path="url(#clip-path)">
      <path id="Path_14" data-name="Path 14" d="M139.505,78.082a53.87,53.87,0,1,0-53.87,53.87,53.871,53.871,0,0,0,53.87-53.87" transform="translate(-17.838 -13.596)" fill="none" stroke="#232929" stroke-linecap="round" stroke-linejoin="round" stroke-width="3"/>
    </g>
  </g>
  <text id="P" transform="translate(136.636 80.936)" fill="#232929" font-size="21" font-family="Roboto-Light, Roboto" font-weight="300"><tspan x="0" y="0">P</tspan></text>
  <text id="L" transform="translate(152.007 80.936)" fill="#232929" font-size="21" font-family="Roboto-Light, Roboto" font-weight="300"><tspan x="0" y="0">L</tspan></text>
  <text id="US" transform="translate(164.484 81.936)" fill="#232929" font-size="22" font-family="Roboto-Light, Roboto" font-weight="300"><tspan x="0" y="0">US</tspan></text>
  <g id="Group_93" data-name="Group 93">
    <g id="Group_92" data-name="Group 92" clip-path="url(#clip-path-2)">
      <text id="COWORKING" transform="translate(136.756 58.779)" fill="#232929" font-size="26" font-family="Roboto-Bold, Roboto" font-weight="700"><tspan x="0" y="0">COWORKING</tspan></text>
    </g>
  </g>
</svg>
