<svg xmlns="http://www.w3.org/2000/svg" width="44.761" height="39.166" viewBox="0 0 44.761 39.166">
  <path id="Icon_awesome-quote-left" data-name="Icon awesome-quote-left" d="M40.565,21.833H33.571v-5.6a5.6,5.6,0,0,1,5.6-5.6h.7a2.093,2.093,0,0,0,2.1-2.1v-4.2a2.093,2.093,0,0,0-2.1-2.1h-.7A13.984,13.984,0,0,0,25.178,16.238V37.22a4.2,4.2,0,0,0,4.2,4.2h11.19a4.2,4.2,0,0,0,4.2-4.2V26.03A4.2,4.2,0,0,0,40.565,21.833Zm-25.178,0H8.393v-5.6a5.6,5.6,0,0,1,5.6-5.6h.7a2.093,2.093,0,0,0,2.1-2.1v-4.2a2.093,2.093,0,0,0-2.1-2.1h-.7A13.984,13.984,0,0,0,0,16.238V37.22a4.2,4.2,0,0,0,4.2,4.2h11.19a4.2,4.2,0,0,0,4.2-4.2V26.03A4.2,4.2,0,0,0,15.387,21.833Z" transform="translate(0 -2.25)" fill="#6e6ae3"/>
</svg>
